<?xml version="1.0" encoding="UTF-8"?>
<svg version="1.1" xmlns="http://www.w3.org/2000/svg" width="800" height="600">
<path d="M0 0 C5.08964906 0.65672891 9.39764102 2.86071815 14 5 C21.26437707 8.33255395 28.56933867 11.52920705 35.9375 14.625 C43.89794382 17.98715225 51.51344565 21.68029981 59 26 C59 24.35 59 22.7 59 21 C62.84411747 22.56612193 65.15950209 25.02094121 68 28 C71.18062078 31.43163857 71.18062078 31.43163857 75 34 C75 34.66 75 35.32 75 36 C75.57202148 36.27094482 76.14404297 36.54188965 76.73339844 36.82104492 C79.04807358 38.02500509 81.12250368 39.37659217 83.265625 40.86328125 C84.47798828 41.69956055 84.47798828 41.69956055 85.71484375 42.55273438 C86.55144531 43.13345703 87.38804687 43.71417969 88.25 44.3125 C94.08490485 48.3566295 99.94939803 52.28459579 106 56 C105.34 55.01 104.68 54.02 104 53 C103.76953125 50.22265625 103.76953125 50.22265625 103.8125 47.0625 C103.81894531 46.02222656 103.82539063 44.98195312 103.83203125 43.91015625 C103.97464252 41.43933308 104.28968988 39.35822959 105 37 C106.485 37.495 106.485 37.495 108 38 C109.25390625 40.52734375 109.25390625 40.52734375 110.5625 43.9375 C112.94935409 49.91908916 115.84078094 55.42808352 119.0625 61 C122.76247788 67.44150729 125.40795702 73.56470844 127.73828125 80.62109375 C131.25993153 90.05213861 137.71778695 103.35889348 147 108 C147 108.66 147 109.32 147 110 C147.51175781 110.24234375 148.02351562 110.4846875 148.55078125 110.734375 C151.15587281 112.08054671 153.65546694 113.57444297 156.17578125 115.0715332 C169.96945567 123.15188107 184.49601752 127.45265542 200 131 C199.67 128.03 199.34 125.06 199 122 C202.69673138 122 204.75922568 123.30916122 208 125 C208.33 125 208.66 125 209 125 C209.05447047 123.58376784 209.09300508 122.16691809 209.125 120.75 C209.14820313 119.96109375 209.17140625 119.1721875 209.1953125 118.359375 C208.97755293 115.72883938 208.48041976 114.18167122 207 112 C203.94091587 111.18415432 203.94091587 111.18415432 201 111 C200.52029877 109.25014646 200.04126076 107.50011109 199.5625 105.75 C199.29566406 104.77546875 199.02882813 103.8009375 198.75390625 102.796875 C198.14455416 100.53627347 197.55761745 98.27377991 197 96 C196.401875 96.495 195.80375 96.99 195.1875 97.5 C193 99 193 99 190 99 C189.93941406 98.10796875 189.87882813 97.2159375 189.81640625 96.296875 C189.73261719 95.12640625 189.64882813 93.9559375 189.5625 92.75 C189.48128906 91.58984375 189.40007812 90.4296875 189.31640625 89.234375 C189.06752213 86.69022624 188.71885058 84.44046752 188 82 C185.525 82.99 185.525 82.99 183 84 C182.4030483 75.49343829 184.86903169 71.84129108 190 65 C186.7 65 183.4 65 180 65 C180 63.68 180 62.36 180 61 C183.92886769 57.16695835 188.18756593 54.5987144 193 52 C192.35933594 51.74605469 191.71867188 51.49210937 191.05859375 51.23046875 C186.00777217 49.22067834 180.98519412 47.16747571 176 45 C176 44.34 176 43.68 176 43 C180.70461323 41.13867327 184.8757696 40.7490504 189.875 40.875 C190.90753906 40.88853516 190.90753906 40.88853516 191.9609375 40.90234375 C193.64077838 40.92567487 195.32043746 40.96153674 197 41 C196.154375 40.34 195.30875 39.68 194.4375 39 C191.9385299 36.93108522 189.87992759 34.74689323 187.8125 32.25 C184.19131366 27.98361342 180.04326455 24.61986491 175.6484375 21.17578125 C170.85672183 17.23922428 166.89765052 12.78854207 163 8 C166 7 166 7 168.109375 7.93359375 C169.41648437 8.67802734 169.41648437 8.67802734 170.75 9.4375 C176.77382032 12.60330338 182.92532831 14.78760944 189.375 16.9375 C198.36594601 19.94999408 206.70378251 23.39897817 215 28 C214.97679687 27.43152344 214.95359375 26.86304688 214.9296875 26.27734375 C214.80808312 21.07441352 215.32276508 16.92687757 217 12 C219.95778637 12.32135595 220.89397671 12.8795488 222.89453125 15.15234375 C223.84392578 16.53099609 223.84392578 16.53099609 224.8125 17.9375 C225.84310547 19.41476563 225.84310547 19.41476563 226.89453125 20.921875 C227.58933594 21.93765625 228.28414062 22.9534375 229 24 C230.33217101 25.89665026 231.66541305 27.79254895 233 29.6875 C234.00104724 31.12427092 235.00146334 32.56148313 236 34 C237.98 31.03 237.98 31.03 240 28 C240.66 28.33 241.32 28.66 242 29 C242 30.98 242 32.96 242 35 C242.66 35.33 243.32 35.66 244 36 C244.6328125 38.06640625 244.6328125 38.06640625 245.125 40.5625 C245.37636719 41.80193359 245.37636719 41.80193359 245.6328125 43.06640625 C245.75398437 43.70449219 245.87515625 44.34257812 246 45 C246.66 45 247.32 45 248 45 C249.32 45 250.64 45 252 45 C252.24234375 45.96421875 252.4846875 46.9284375 252.734375 47.921875 C253.06953125 49.18515625 253.4046875 50.4484375 253.75 51.75 C254.07484375 53.00296875 254.3996875 54.2559375 254.734375 55.546875 C256.31666737 59.86399369 258.01470187 62.03261837 262.1484375 64.046875 C266.59701421 65.4516887 270.28010572 66.23599471 275 66 C275.33 66.33 275.66 66.66 276 67 C275.752372 74.8002819 273.66600505 82.33399495 268 88 C265.875 87.625 265.875 87.625 264 87 C264 86.34 264 85.68 264 85 C261.9837767 85.71563266 261.9837767 85.71563266 260 87 C259.19471111 89.05000871 259.19471111 89.05000871 259 91 C259.99 91.33 260.98 91.66 262 92 C261.6083965 97.95507399 260.62875405 102.62819824 258 108 C249.74877049 105.25464606 245.48692861 101.96732109 240.94921875 94.5234375 C238.61148862 91.49703737 236.52575329 90.40563144 233 89 C230.24853726 88.74715633 230.24853726 88.74715633 228 89 C229.42537857 92.23229787 231.18227947 94.4023259 233.625 96.9375 C240.7737745 104.84151844 246.20523431 113.6943015 249 124 C249.97582031 123.50628906 250.95164062 123.01257813 251.95703125 122.50390625 C253.24213405 121.85666469 254.52729325 121.20953512 255.8125 120.5625 C256.45509766 120.23701172 257.09769531 119.91152344 257.75976562 119.57617188 C260.48265466 118.20767324 263.10449794 116.96516735 266 116 C266 115.34 266 114.68 266 114 C266.86625 113.38125 267.7325 112.7625 268.625 112.125 C279.65181191 103.12670538 281.57456288 84.94775644 282.98339844 71.67773438 C283.36186589 67.78769893 283.69376823 63.8963963 284 60 C288.30983135 62.52645286 289.29942025 65.49346365 291 70 C292.43836985 67.29212552 293.87572092 64.58371839 295.3125 61.875 C295.91868164 60.73417969 295.91868164 60.73417969 296.53710938 59.5703125 C298.74515488 55.40554373 300.9132933 51.22743816 303 47 C303.66 47.33 304.32 47.66 305 48 C305.09706112 54.11485027 304.77040851 59.93303301 304 66 C317.45874325 57.37260048 327.49077664 47.23813185 335.60131836 33.48266602 C337.75247409 29.8511065 339.81354237 26.84453181 343 24 C343.2396943 29.63281599 342.38529821 34.54538831 341 40 C341.73605469 39.39671875 342.47210937 38.7934375 343.23046875 38.171875 C344.20628906 37.37265625 345.18210937 36.5734375 346.1875 35.75 C347.15042969 34.96109375 348.11335938 34.1721875 349.10546875 33.359375 C351.72500523 31.22415228 354.35729197 29.10643639 357 27 C357.13496251 29.10241603 357.23197307 31.2072961 357.3125 33.3125 C357.37050781 34.48425781 357.42851563 35.65601563 357.48828125 36.86328125 C357 40 357 40 354.59765625 41.765625 C353.74042969 42.17296875 352.88320313 42.5803125 352 43 C351.38125 43.804375 350.7625 44.60875 350.125 45.4375 C347.93214296 48.0818276 345.82929725 49.27272473 342.859375 50.91333008 C340.02138938 52.57192698 337.51125092 54.58592508 334.9375 56.625 C330.35851231 60.22024431 325.70389532 63.65791575 320.9375 67 C306.86669819 76.99278995 298.50222421 85.96405513 291.67236328 101.9597168 C286.57196146 113.79404639 279.92855538 125.60715371 269 133 C268.34 133 267.68 133 267 133 C267 133.66 267 134.32 267 135 C265.37750059 135.83819158 263.75191503 136.6704116 262.125 137.5 C261.22007812 137.9640625 260.31515625 138.428125 259.3828125 138.90625 C257 140 257 140 255 140 C254.46215476 143.14954418 253.95972391 146.2949142 253.52734375 149.4609375 C251.56414505 162.48825602 247.40048754 174.61199401 243 187 C243.33 187.33 243.66 187.66 244 188 C245.39685738 187.96765172 246.79294386 187.89892978 248.1875 187.8125 C253.02002522 187.74432958 254.97841067 189.31894045 259 192 C261.03229685 192.35105803 263.07636182 192.63718952 265.125 192.875 C270.51938415 193.61882191 270.51938415 193.61882191 272.69921875 195.34765625 C273.8125 196.9375 273.8125 196.9375 275 200 C274.67 200.99 274.34 201.98 274 203 C272.89591797 202.85691406 272.89591797 202.85691406 271.76953125 202.7109375 C270.79371094 202.60007812 269.81789063 202.48921875 268.8125 202.375 C267.84957031 202.25898438 266.88664062 202.14296875 265.89453125 202.0234375 C262.75924677 201.99805058 260.80513465 202.65640717 258 204 C258.165 204.515625 258.33 205.03125 258.5 205.5625 C259.16025316 208.78123414 259.17875792 211.72277139 259 215 C258.34 215.99 257.68 216.98 257 218 C255.68 218 254.36 218 253 218 C252.773125 216.948125 252.54625 215.89625 252.3125 214.8125 C251.18840766 210.83369833 249.2038144 208.64314688 246 206 C245.34 206 244.68 206 244 206 C243.97421875 206.79664063 243.9484375 207.59328125 243.921875 208.4140625 C243.58532003 214.70152132 243.30054276 219.08509398 239 224 C238.0409375 225.175625 238.0409375 225.175625 237.0625 226.375 C235 228 235 228 232.375 228.375 C230 228 230 228 228 226 C227.9453125 223.9765625 227.9453125 223.9765625 228.125 221.625 C228.24775352 219.2106399 228.24775352 219.2106399 228 217 C227.319375 216.34 226.63875 215.68 225.9375 215 C225.298125 214.34 224.65875 213.68 224 213 C224.1328125 211.01171875 224.1328125 211.01171875 224.5625 208.6875 C225.05109661 205.84988123 225.23132713 204.48017903 223.96875 201.859375 C222.43976529 199.7122772 222.43976529 199.7122772 220 197 C214.69910944 198.25547408 211.06068949 200.97931295 206.73828125 204.12109375 C203.06432948 206.64202214 199.20164514 208.68948796 195.25 210.73828125 C192.8928417 211.92655789 192.8928417 211.92655789 191 214 C190.69586483 215.94992387 190.69586483 215.94992387 190.7265625 218.18359375 C190.69973389 219.44429688 190.69973389 219.44429688 190.67236328 220.73046875 C190.64891846 222.07044922 190.64891846 222.07044922 190.625 223.4375 C190.31663857 232.79835305 189.40866155 241.66390023 183 249 C180.79516602 250.00488281 180.79516602 250.00488281 178.25390625 250.703125 C176.87428711 251.08984375 176.87428711 251.08984375 175.46679688 251.484375 C174.50837891 251.73703125 173.54996094 251.9896875 172.5625 252.25 C171.60794922 252.518125 170.65339844 252.78625 169.66992188 253.0625 C165.58471443 254.18314473 162.2703073 255 158 255 C158.95627281 262.07138577 159.79290554 267.79290554 165 273 C165.8254923 276.97268168 166.39415464 280.98871739 167 285 C167.13921875 285.84175781 167.2784375 286.68351562 167.421875 287.55078125 C168.14347151 292.52464288 167.91038223 296.22404441 166 301 C164.375 302.9375 164.375 302.9375 163 304 C162.01 303.67 161.02 303.34 160 303 C160.33 300.36 160.66 297.72 161 295 C160.34 295.66 159.68 296.32 159 297 C155.46428571 296.46428571 155.46428571 296.46428571 154 295 C153.78462008 293.37591895 153.57762616 291.75072151 153.375 290.125 C152.95220711 287.37099195 152.95220711 287.37099195 152 285 C150.865625 284.5875 149.73125 284.175 148.5625 283.75 C147.386875 283.1725 146.21125 282.595 145 282 C143.90617707 278.66711218 143.38532678 275.37019492 142.81640625 271.91015625 C141.93876716 267.70672692 140.65443293 264.52460834 138.875 260.625 C136.60108464 255.5611436 134.89860493 251.576729 135 246 C136.50390625 243.28515625 136.50390625 243.28515625 138 241 C137.48203857 241.25168945 136.96407715 241.50337891 136.43041992 241.76269531 C123.7891882 247.88480554 111.80564919 253.44998831 97.9453125 256.19140625 C94.87676695 257.03383188 92.67803273 258.31573203 90 260 C89.34 260 88.68 260 88 260 C87.74476563 260.52207031 87.48953125 261.04414063 87.2265625 261.58203125 C79.16569741 277.47271753 69.92344998 290.8754245 52.28125 296.93359375 C50 297 50 297 47.98046875 295.78515625 C47.09294922 294.93244141 47.09294922 294.93244141 46.1875 294.0625 C45.58292969 293.49660156 44.97835937 292.93070312 44.35546875 292.34765625 C43.90816406 291.90292969 43.46085937 291.45820313 43 291 C43.33 290.34 43.66 289.68 44 289 C44.7425 289.350625 45.485 289.70125 46.25 290.0625 C49.2705173 291.09222181 50.09256007 291.09515424 53 290 C54.80055901 288.48692269 54.80055901 288.48692269 56.4375 286.625 C59.08473634 283.84654289 61.55530547 281.77453961 65 280 C64.01 280.33 63.02 280.66 62 281 C59.8125 280.5625 59.8125 280.5625 58 280 C57.6875 277.8125 57.6875 277.8125 58 275 C59.2684375 273.824375 59.2684375 273.824375 60.5625 272.625 C61.366875 271.75875 62.17125 270.8925 63 270 C62.71269945 267.66055264 62.38063221 265.3260857 62 263 C63.875 260.8125 63.875 260.8125 66 259 C66.7872678 256.8618034 66.7872678 256.8618034 67 255 C65.31197266 254.86271484 65.31197266 254.86271484 63.58984375 254.72265625 C58.56884663 254.08743659 54.19831762 252.41092081 49.5625 250.4375 C48.72936279 250.0854248 47.89622559 249.73334961 47.0378418 249.37060547 C40.8269322 246.62521663 35.2571035 243.4460243 31 238 C31 237.34 31 236.68 31 236 C30.34 236 29.68 236 29 236 C20.2245053 226.40663804 15.59698639 212.72001448 15.7890625 199.8125 C16.66362745 188.15163397 20.89329978 179.6659044 29.3125 171.6875 C37.60726463 164.65376377 46.05097147 162.63891263 56.72265625 162.7109375 C61.40778362 163.12416685 64.08859627 164.41699754 68 167 C70 170 70 170 70 174 C66.85998213 173.55142602 64.17392487 173.07510392 61.25 171.8125 C55.33911836 170.33477959 49.98505541 171.95129148 44.6875 174.75 C37.86418106 180.46254609 34.99090438 185.97590673 34.15234375 194.7734375 C33.96433285 197.52128912 33.92941123 200.24703814 34 203 C34.66 203.33 35.32 203.66 36 204 C36.43892578 205.11375 36.43892578 205.11375 36.88671875 206.25 C39.40463343 212.46969101 44.24097894 217.49697718 50.09765625 220.6875 C53.36874516 221.99749508 56.60481091 223.06029664 60 224 C60.89589844 224.25523437 61.79179687 224.51046875 62.71484375 224.7734375 C74.3197343 227.46088584 86.83746792 225.76025975 98 222 C96.35 221.67 94.7 221.34 93 221 C93 219.35 93 217.7 93 216 C94.19496094 215.75765625 95.38992188 215.5153125 96.62109375 215.265625 C104.83908865 213.54987475 112.49009742 211.89402356 120 208 C118.02 207.01 118.02 207.01 116 206 C116.26757812 204.1184082 116.26757812 204.1184082 117 202 C118.62304688 200.92260742 118.62304688 200.92260742 120.71875 200.10546875 C121.48268066 199.79287109 122.24661133 199.48027344 123.03369141 199.15820312 C123.84757324 198.83787109 124.66145508 198.51753906 125.5 198.1875 C132.48027744 195.28810594 138.42144742 192.21969832 144 187 C142.72125 186.731875 141.4425 186.46375 140.125 186.1875 C136.50324145 185.42809901 136.19948132 185.29922197 134 182 C140.11880727 179.2341755 146.28868192 176.61143773 152.49609375 174.05078125 C154.01718963 173.41244304 155.52454526 172.73772737 157 172 C155.68 171.34 154.36 170.68 153 170 C153 168.68 153 167.36 153 166 C154.01320313 165.75765625 155.02640625 165.5153125 156.0703125 165.265625 C157.42202833 164.92769604 158.77358243 164.58911976 160.125 164.25 C160.79015625 164.09273437 161.4553125 163.93546875 162.140625 163.7734375 C166.75916818 162.59616179 170.10210946 160.84316721 174 158 C175.3191582 157.30570621 176.64649406 156.62469505 178 156 C178 155.34 178 154.68 178 154 C178.66 154 179.32 154 180 154 C180 153.34 180 152.68 180 152 C180.66 152 181.32 152 182 152 C182.33 150.68 182.66 149.36 183 148 C182.40316406 147.81566406 181.80632812 147.63132812 181.19140625 147.44140625 C171.91197806 144.33907142 163.53904067 139.70514089 155 135 C154.02675781 134.46375 153.05351562 133.9275 152.05078125 133.375 C150.61820958 132.57938995 149.18785741 131.77974081 147.76171875 130.97265625 C146.49946693 130.2757589 145.21172519 129.62428023 143.91015625 129.00390625 C141.06066413 127.50632041 139.22358194 125.32465385 137 123 C136.4121875 122.45601563 135.824375 121.91203125 135.21875 121.3515625 C125.75057356 112.44696799 119.4819111 101.6806875 114 90 C108.02576522 76.98380795 108.02576522 76.98380795 99 66 C98.35804688 65.36191406 97.71609375 64.72382813 97.0546875 64.06640625 C91.18804938 58.51366575 84.54553422 54.33523391 77.72265625 50.08935547 C75.16930282 48.47469234 72.6823681 46.76572726 70.1875 45.0625 C58.22937563 37.07453644 45.76008223 30.24894378 32.86376953 23.92041016 C20.86925256 17.99699792 9.81268442 11.15850546 0 2 C0 1.34 0 0.68 0 0 Z " fill="#EBEBEB" transform="translate(230,148)"/>
<path d="M0 0 C3.26797641 0.68854336 6.03518687 1.88099902 9.04296875 3.3203125 C14.68464102 5.92819353 20.41440563 7.9358456 26.3125 9.875 C35.31466644 12.90853685 43.68952354 16.39107025 52 21 C51.97679687 20.43152344 51.95359375 19.86304688 51.9296875 19.27734375 C51.80808312 14.07441352 52.32276508 9.92687757 54 5 C56.95778637 5.32135595 57.89397671 5.8795488 59.89453125 8.15234375 C60.52746094 9.07144531 61.16039062 9.99054688 61.8125 10.9375 C62.49957031 11.92234375 63.18664062 12.9071875 63.89453125 13.921875 C64.58933594 14.93765625 65.28414063 15.9534375 66 17 C67.33217101 18.89665026 68.66541305 20.79254895 70 22.6875 C71.00104724 24.12427092 72.00146334 25.56148313 73 27 C74.32 25.02 75.64 23.04 77 21 C77.66 21.33 78.32 21.66 79 22 C79 23.98 79 25.96 79 28 C79.66 28.33 80.32 28.66 81 29 C81.6328125 31.06640625 81.6328125 31.06640625 82.125 33.5625 C82.29257812 34.38878906 82.46015625 35.21507812 82.6328125 36.06640625 C82.75398438 36.70449219 82.87515625 37.34257812 83 38 C83.66 38 84.32 38 85 38 C86.32 38 87.64 38 89 38 C89.24234375 38.96421875 89.4846875 39.9284375 89.734375 40.921875 C90.23710937 42.81679687 90.23710937 42.81679687 90.75 44.75 C91.23726562 46.62945312 91.23726562 46.62945312 91.734375 48.546875 C93.31666737 52.86399369 95.01470187 55.03261837 99.1484375 57.046875 C103.59701421 58.4516887 107.28010572 59.23599471 112 59 C112.33 59.33 112.66 59.66 113 60 C112.752372 67.8002819 110.66600505 75.33399495 105 81 C102.875 80.625 102.875 80.625 101 80 C101 79.34 101 78.68 101 78 C98.9837767 78.71563266 98.9837767 78.71563266 97 80 C96.19471111 82.05000871 96.19471111 82.05000871 96 84 C97.485 84.495 97.485 84.495 99 85 C98.6083965 90.95507399 97.62875405 95.62819824 95 101 C86.74877049 98.25464606 82.48692861 94.96732109 77.94921875 87.5234375 C75.61148862 84.49703737 73.52575329 83.40563144 70 82 C67.24853726 81.74715633 67.24853726 81.74715633 65 82 C66.42537857 85.23229787 68.18227947 87.4023259 70.625 89.9375 C77.7737745 97.84151844 83.20523431 106.6943015 86 117 C86.97582031 116.50628906 87.95164062 116.01257813 88.95703125 115.50390625 C90.24213405 114.85666469 91.52729325 114.20953512 92.8125 113.5625 C93.77639648 113.07426758 93.77639648 113.07426758 94.75976562 112.57617188 C97.48265466 111.20767324 100.10449794 109.96516735 103 109 C103 108.34 103 107.68 103 107 C103.86625 106.38125 104.7325 105.7625 105.625 105.125 C116.65181191 96.12670538 118.57456288 77.94775644 119.98339844 64.67773438 C120.36186589 60.78769893 120.69376823 56.8963963 121 53 C125.30983135 55.52645286 126.29942025 58.49346365 128 63 C129.43836985 60.29212552 130.87572092 57.58371839 132.3125 54.875 C132.91868164 53.73417969 132.91868164 53.73417969 133.53710938 52.5703125 C135.74515488 48.40554373 137.9132933 44.22743816 140 40 C140.66 40.33 141.32 40.66 142 41 C142.09706112 47.11485027 141.77040851 52.93303301 141 59 C154.45874325 50.37260048 164.49077664 40.23813185 172.60131836 26.48266602 C174.75247409 22.8511065 176.81354237 19.84453181 180 17 C180.2396943 22.63281599 179.38529821 27.54538831 178 33 C178.73605469 32.39671875 179.47210937 31.7934375 180.23046875 31.171875 C181.20628906 30.37265625 182.18210937 29.5734375 183.1875 28.75 C184.15042969 27.96109375 185.11335937 27.1721875 186.10546875 26.359375 C188.72500523 24.22415228 191.35729197 22.10643639 194 20 C194.13496251 22.10241603 194.23197307 24.2072961 194.3125 26.3125 C194.39951172 28.07013672 194.39951172 28.07013672 194.48828125 29.86328125 C194 33 194 33 191.59765625 34.765625 C190.74042969 35.17296875 189.88320313 35.5803125 189 36 C188.071875 37.2065625 188.071875 37.2065625 187.125 38.4375 C184.93214296 41.0818276 182.82929725 42.27272473 179.859375 43.91333008 C177.02138938 45.57192698 174.51125092 47.58592508 171.9375 49.625 C167.35851231 53.22024431 162.70389532 56.65791575 157.9375 60 C143.86669819 69.99278995 135.50222421 78.96405513 128.67236328 94.9597168 C123.57196146 106.79404639 116.92855538 118.60715371 106 126 C105.34 126 104.68 126 104 126 C104 126.66 104 127.32 104 128 C102.37750059 128.83819158 100.75191503 129.6704116 99.125 130.5 C98.22007812 130.9640625 97.31515625 131.428125 96.3828125 131.90625 C94 133 94 133 92 133 C91.46215476 136.14954418 90.95972391 139.2949142 90.52734375 142.4609375 C88.56414505 155.48825602 84.40048754 167.61199401 80 180 C80.33 180.33 80.66 180.66 81 181 C82.39685738 180.96765172 83.79294386 180.89892978 85.1875 180.8125 C90.02002522 180.74432958 91.97841067 182.31894045 96 185 C98.03229685 185.35105803 100.07636182 185.63718952 102.125 185.875 C107.51938415 186.61882191 107.51938415 186.61882191 109.69921875 188.34765625 C110.8125 189.9375 110.8125 189.9375 112 193 C111.67 193.99 111.34 194.98 111 196 C110.26394531 195.90460938 109.52789062 195.80921875 108.76953125 195.7109375 C107.79371094 195.60007812 106.81789063 195.48921875 105.8125 195.375 C104.84957031 195.25898438 103.88664062 195.14296875 102.89453125 195.0234375 C99.75924677 194.99805058 97.80513465 195.65640717 95 197 C95.165 197.515625 95.33 198.03125 95.5 198.5625 C96.16025316 201.78123414 96.17875792 204.72277139 96 208 C95.34 208.99 94.68 209.98 94 211 C92.68 211 91.36 211 90 211 C89.773125 209.948125 89.54625 208.89625 89.3125 207.8125 C88.18840766 203.83369833 86.2038144 201.64314688 83 199 C82.34 199 81.68 199 81 199 C80.97421875 199.79664063 80.9484375 200.59328125 80.921875 201.4140625 C80.58532003 207.70152132 80.30054276 212.08509398 76 217 C75.0409375 218.175625 75.0409375 218.175625 74.0625 219.375 C72 221 72 221 69.375 221.375 C67 221 67 221 65 219 C64.9453125 216.9765625 64.9453125 216.9765625 65.125 214.625 C65.24775352 212.2106399 65.24775352 212.2106399 65 210 C64.319375 209.34 63.63875 208.68 62.9375 208 C62.298125 207.34 61.65875 206.68 61 206 C61.1328125 204.01171875 61.1328125 204.01171875 61.5625 201.6875 C62.02810438 198.9212622 62.23078015 197.49720926 61.0390625 194.9296875 C59.20272036 192.39277552 57.21324747 190.21324747 55 188 C55.99 187.34 56.98 186.68 58 186 C58.33 185.01 58.66 184.02 59 183 C61.50758443 183.38453239 62.7631934 183.76782532 64.59765625 185.56640625 C69.60322645 192.38732991 72.12482525 198.59832239 73 207 C73.10957031 206.08476562 73.21914063 205.16953125 73.33203125 204.2265625 C73.49058594 203.03804687 73.64914062 201.84953125 73.8125 200.625 C74.03873047 198.84996094 74.03873047 198.84996094 74.26953125 197.0390625 C75 194 75 194 78 192 C80.26171875 191.5859375 80.26171875 191.5859375 82.6875 191.375 C83.89986328 191.26285156 83.89986328 191.26285156 85.13671875 191.1484375 C85.75160156 191.09945312 86.36648438 191.05046875 87 191 C86.20335937 190.97164062 85.40671875 190.94328125 84.5859375 190.9140625 C76.06034483 190.14655172 76.06034483 190.14655172 73.078125 186.921875 C71.59886816 184.32919904 70.30456174 181.68400769 69 179 C68.01804598 177.57654727 66.99844249 176.178096 65.9375 174.8125 C63.2010627 171.26740577 60.58862032 167.65452281 58 164 C61.06117568 161.37613513 61.73173127 161 66 161 C71.62403118 151.55381171 73.54606161 142.76424565 75 132 C75.66 132 76.32 132 77 132 C77.57458735 145.3272344 76.24052831 155.93021028 70 168 C70.66 168 71.32 168 72 168 C72.226875 167.21625 72.45375 166.4325 72.6875 165.625 C73.78515446 162.59338292 75.01233956 159.96866952 76.5 157.125 C82.0884956 146.01394976 82.68549723 134.13176551 79.14453125 122.18359375 C76.30755738 116.77107364 71.39738796 113.77947755 66.25 110.8125 C60.12789129 107.25578258 60.12789129 107.25578258 59 105 C64.46737191 106.74807129 69.75824848 108.65794081 75 111 C71.83536529 104.9560665 68.08162046 103.17308971 61.875 100.6875 C61.05128906 100.34138672 60.22757812 99.99527344 59.37890625 99.63867188 C57.86140521 99.00161947 56.34071179 98.37207958 54.81591797 97.75268555 C53.52286612 97.21672442 52.25195444 96.62597722 51 96 C51.33 95.34 51.66 94.68 52 94 C56.95 95.65 61.9 97.3 67 99 C63.28303454 95.22217833 63.28303454 95.22217833 58.99609375 93 C57.88524414 92.505 57.88524414 92.505 56.75195312 92 C55.20569198 91.3319108 53.65881307 90.66524962 52.11132812 90 C45.16797457 86.90061289 45.16797457 86.90061289 43 83 C43.7425 83.165 44.485 83.33 45.25 83.5 C48.19006578 84.11925696 48.19006578 84.11925696 52 84 C48.7 81.03 45.4 78.06 42 75 C43.4545933 69.18162678 47.08915333 65.10000962 51.94921875 61.59375 C56.36785714 59 56.36785714 59 59 59 C58.71125 59.78375 58.4225 60.5675 58.125 61.375 C56.73239716 65.8622758 55.85728019 70.385279 55 75 C55.60585938 74.84402344 56.21171875 74.68804687 56.8359375 74.52734375 C64.35420748 72.7807918 71.1393131 72.14390053 78.25 75.5625 C81.27736237 78.24584392 83.49900674 81.07993621 85.80078125 84.390625 C86.19652344 84.92171875 86.59226562 85.4528125 87 86 C87.33 86 87.66 86 88 86 C83.52946118 79.4741745 79.28534266 73.84495164 73 69 C73.495 67.02 73.495 67.02 74 65 C80.33162648 63.12929218 84.04709987 65.11609779 89.91015625 67.78515625 C94.23916846 69.48720783 98.3808166 69.88758624 103 70 C103 69.01 103 68.02 103 67 C102.10925781 66.90589844 101.21851563 66.81179687 100.30078125 66.71484375 C96.7012292 65.93529579 95.03728164 64.83570891 92.1875 62.5625 C88.84666774 60.07944899 86.43551702 58.61212027 82.3125 58 C77.01427847 57.18924012 74.32008022 53.99263666 71 50 C74.54667178 48.74872094 76.72253438 49.27714947 80.25 50.4375 C81.14203125 50.72496094 82.0340625 51.01242188 82.953125 51.30859375 C83.62859375 51.53675781 84.3040625 51.76492187 85 52 C85 51.34 85 50.68 85 50 C84.40832031 49.73356689 83.81664062 49.46713379 83.20703125 49.19262695 C80.95487602 47.97561608 79.48402403 46.72815965 77.6875 44.91796875 C77.08679688 44.31533203 76.48609375 43.71269531 75.8671875 43.09179688 C75.25101562 42.46337891 74.63484375 41.83496094 74 41.1875 C73.38382812 40.57068359 72.76765625 39.95386719 72.1328125 39.31835938 C68.87053548 36.02457968 65.81482392 32.6944564 63 29 C63.495 32.465 63.495 32.465 64 36 C60.42130856 35.45796068 58.19063798 34.67217961 55.3125 32.5 C48.07329818 27.43502944 39.9316455 23.84074828 32 20 C37.31429814 26.17252553 37.31429814 26.17252553 43 32 C39.04 33.98 39.04 33.98 35 36 C31.91725047 32.9726956 28.97413895 29.88350129 26.10595703 26.64868164 C21.70317523 21.70129935 17.28264151 17.38859179 11.9296875 13.4453125 C7.27324823 9.95769604 3.6008522 5.52678563 0 1 C0 0.67 0 0.34 0 0 Z " fill="#EAEAEA" transform="translate(393,155)"/>
<path d="M0 0 C5.59940987 1.61416213 10.50903464 4.21029693 15.625 6.9375 C16.470625 7.38029297 17.31625 7.82308594 18.1875 8.27929688 C24.50371998 11.62171297 24.50371998 11.62171297 27.08349609 13.58813477 C29.0479571 15.18714232 29.0479571 15.18714232 32 16 C31.34 12.7 30.68 9.4 30 6 C30.57234375 6.72574219 31.1446875 7.45148438 31.734375 8.19921875 C41.09039239 20.58094999 41.09039239 20.58094999 53 30 C53 30.66 53 31.32 53 32 C48.65535464 31.39174965 44.32448133 30.73832608 40 30 C44.670432 34.75951381 48.02587772 37.3442398 54.62890625 38.33984375 C58.58673188 39.44177543 61.52638698 41.95361053 64.73828125 44.44140625 C66.90836681 45.93685381 68.42814617 46.57037682 71 47 C71 47.99 71 48.98 71 50 C63.52968016 50.74372653 58.54868929 49.15373663 51.78515625 46.046875 C47.98877797 44.61990532 45.82938326 44.86859131 42 46 C42.55180546 49.64979897 43.7210547 50.87052584 46.625 53.0625 C51.6805235 57.24197611 54.74306862 62.37161546 58 68 C57.01 68 56.02 68 55 68 C53.60546875 66.171875 53.60546875 66.171875 52.1875 63.75 C49.5617583 59.66693956 47.51763387 57.08506179 43 55 C36.29078276 53.54400667 29.74686179 54.06692337 23 55 C22.53549057 48.49686791 23.67424388 44.5825192 27 39 C17.60037976 43.94330892 17.60037976 43.94330892 11 52 C11.06393543 55.13283587 12.08585636 56.08864485 14.28515625 58.359375 C15.20167969 59.14828125 16.11820312 59.9371875 17.0625 60.75 C18.44115234 61.94882813 18.44115234 61.94882813 19.84765625 63.171875 C20.91306641 64.07679688 20.91306641 64.07679688 22 65 C18.06329512 66.31223496 15.87511856 65.24296256 12 64 C17.57727767 67.68100326 23.27720084 70.70942429 29.33837891 73.50024414 C30.92945714 74.26004828 32.46989118 75.12387256 34 76 C34.33 76.99 34.66 77.98 35 79 C24.44191344 77.07289294 24.44191344 77.07289294 20 75 C21.42682958 76.42682958 23.02967239 76.90341774 24.89453125 77.671875 C25.68537109 78.00703125 26.47621094 78.3421875 27.29101562 78.6875 C28.95648696 79.38929427 30.62573741 80.08219439 32.29882812 80.765625 C37.02153885 82.78800234 40.24443436 84.44010508 43 89 C43 89.66 43 90.32 43 91 C39.33827525 90.37321829 36.1181005 89.35548154 32.6875 87.9375 C31.80449219 87.57527344 30.92148437 87.21304688 30.01171875 86.83984375 C29.01591797 86.42412109 29.01591797 86.42412109 28 86 C28.88042969 86.53109375 29.76085937 87.0621875 30.66796875 87.609375 C31.84125682 88.32273415 33.01442769 89.0362861 34.1875 89.75 C34.76564453 90.09804688 35.34378906 90.44609375 35.93945312 90.8046875 C42.52864102 94.82520893 46.39237657 97.56827323 49 105 C52.78543421 120.69763977 48.06025542 134.59310849 40 148 C39.34 148 38.68 148 38 148 C38.97731884 145.04174792 39.96553031 142.09430386 41.03515625 139.16796875 C44.16485764 130.08826473 44.77223776 121.50907365 45 112 C44.34 112 43.68 112 43 112 C42.96261719 112.75023437 42.92523438 113.50046875 42.88671875 114.2734375 C42.20417663 124.89968146 40.18614145 133.2464876 34 142 C33.34 141.67 32.68 141.34 32 141 C31.79171777 138.86064397 31.68513388 136.71112971 31.625 134.5625 C31.17639491 126.82602981 29.72555946 120.44805694 24.86328125 114.296875 C22.37622455 109.89629669 22.70765048 106.68005393 23 101.75 C23.31203973 90.40103937 20.56909054 83.7884238 13.87890625 74.65625 C7.45912839 65.58047257 3.82589671 58.67188031 3.75 47.5625 C3.729375 46.81162109 3.70875 46.06074219 3.6875 45.28710938 C3.6551594 40.69070092 4.01898763 37.72626546 7 34 C7.99 33.34 8.98 32.68 10 32 C11.32 32.33 12.64 32.66 14 33 C13.01 35.97 12.02 38.94 11 42 C16.33177785 39.78926284 20.48725611 36.57280269 24 32 C24 31.01 24 30.02 24 29 C20.04 27.35 16.08 25.7 12 24 C12 23.34 12 22.68 12 22 C18.435 21.505 18.435 21.505 25 21 C23.865625 20.29875 22.73125 19.5975 21.5625 18.875 C4.62888927 8.26076887 4.62888927 8.26076887 0 2 C0 1.34 0 0.68 0 0 Z " fill="#080808" transform="translate(425,175)"/>
<path d="M0 0 C0.34611328 1.08667969 0.34611328 1.08667969 0.69921875 2.1953125 C1.18841797 3.64550781 1.18841797 3.64550781 1.6875 5.125 C2.00074219 6.07632812 2.31398438 7.02765625 2.63671875 8.0078125 C5.87266582 15.11020636 10.79564279 18.5196296 17.3125 22.375 C18.05306641 22.82488281 18.79363281 23.27476562 19.55664062 23.73828125 C21.3652939 24.83514195 23.18185706 25.91894204 25 27 C23.16504005 31.16457547 20.56954602 32.91029863 16.75 35.1875 C15.63109375 35.88230469 14.5121875 36.57710938 13.359375 37.29296875 C10.11183508 38.94317218 7.59863137 39.63468439 4 40 C3.94392578 39.12988281 3.94392578 39.12988281 3.88671875 38.2421875 C3.33105097 31.63954683 2.17005637 26.69045232 -3 22.1875 C-7.47948134 18.92121153 -10.57009499 18.89754896 -16 19 C-16.33 19.66 -16.66 20.32 -17 21 C-16.13375 21.185625 -15.2675 21.37125 -14.375 21.5625 C-10.03248858 23.4120882 -7.55120245 26.06100989 -5 30 C-2.48474632 37.07319823 -2.81317264 46.45791818 -5.875 53.25 C-11.31445395 62.56602254 -19.54801862 69.09160265 -29 74 C-30.04800781 74.58394531 -30.04800781 74.58394531 -31.1171875 75.1796875 C-33.68782234 76.29967363 -35.35681478 75.73421812 -38 75 C-42.65718835 64.08294715 -41.87692241 47.72767971 -37.95092773 36.68139648 C-32.62849877 23.98742534 -23.69730172 16.35668828 -12.6484375 8.640625 C-9.38271288 6.34882685 -6.41662186 3.8116139 -3.46728516 1.12792969 C-2 0 -2 0 0 0 Z " fill="#040404" transform="translate(417,309)"/>
<path d="M0 0 C3.33498622 0.99452869 6.66770777 1.99648325 10 3 C11.86519287 3.56122559 11.86519287 3.56122559 13.76806641 4.13378906 C30.89566357 9.30702776 47.80286976 14.51168546 64.05224609 22.09228516 C66.62125329 23.28952366 69.21898497 24.41953071 71.8125 25.5625 C78.96180509 28.86565995 86.00980567 32.37344444 93 36 C93.63437988 36.3290332 94.26875977 36.65806641 94.92236328 36.99707031 C102.97797421 41.23286468 111.16597524 45.84861482 117 53 C117 54.32 117 55.64 117 57 C117.66 57.99 118.32 58.98 119 60 C112.82463798 60.14643534 106.97617732 59.59306704 100.8671875 58.72265625 C99.91288849 58.59185165 98.95858948 58.46104706 97.97537231 58.32627869 C94.94118845 57.9100919 91.90802337 57.48705561 88.875 57.0625 C60.67152429 53.04999588 60.67152429 53.04999588 32.25 53.5 C27.07408894 53.98698088 21.94460937 54.11226291 16.75 54.125 C16.00524414 54.12951172 15.26048828 54.13402344 14.49316406 54.13867188 C9.58156278 54.12556845 4.86291423 53.69313031 0 53 C-0.33 51.35 -0.66 49.7 -1 48 C35.75737805 43.05399947 69.75143695 44.69947643 106 53 C104.90328979 52.60675537 104.90328979 52.60675537 103.78442383 52.20556641 C100.46011225 51.01298117 97.13630193 49.81900488 93.8125 48.625 C92.66201172 48.2125 91.51152344 47.8 90.32617188 47.375 C89.21435547 46.97539062 88.10253906 46.57578125 86.95703125 46.1640625 C85.93585205 45.79748535 84.91467285 45.4309082 83.86254883 45.05322266 C81.22108701 44.08134493 78.60730031 43.05967386 76 42 C76 41.34 76 40.68 76 40 C81.445 40.495 81.445 40.495 87 41 C72.43183576 34.59998616 57.81183652 28.40652435 42.9375 22.75 C42.30631256 22.50816986 41.67512512 22.26633972 41.02481079 22.0171814 C39.23626839 21.333584 37.44437487 20.65877384 35.65234375 19.984375 C34.63132568 19.59991211 33.61030762 19.21544922 32.55834961 18.81933594 C29.97154844 17.84750002 29.97154844 17.84750002 27 18 C27 17.34 27 16.68 27 16 C25.824375 15.67 24.64875 15.34 23.4375 15 C15.21417715 12.28512308 7.18590724 7.79060483 0 3 C0 2.01 0 1.02 0 0 Z " fill="#DDDDDD" transform="translate(214,165)"/>
<path d="M0 0 C0.12314639 4.18922452 0.1339405 8.37163924 0.125 12.5625 C0.16109375 13.74392578 0.1971875 14.92535156 0.234375 16.14257812 C0.13806779 24.73799631 0.13806779 24.73799631 -3.04907227 28.2722168 C-5.6193628 30.10813861 -8.17728426 31.58733386 -11 33 C-11.65516602 33.36859131 -12.31033203 33.73718262 -12.98535156 34.11694336 C-14.68116775 35.04717493 -16.43476205 35.86955562 -18.1875 36.6875 C-19.31542969 37.22761719 -20.44335938 37.76773438 -21.60546875 38.32421875 C-32.84552234 42.89686745 -43.5342652 44.66642774 -55.5715332 44.52148438 C-57.69792162 44.49989418 -59.82097357 44.521501 -61.94726562 44.546875 C-78.70109844 44.58119072 -92.68252395 38.66564523 -104.89453125 27.19140625 C-107.37654134 24.60808963 -109.24389093 22.11310245 -111 19 C-104.25566542 21.09306935 -97.87966348 23.72368736 -91.4296875 26.59765625 C-83.00262689 30.04334504 -75.91164234 30.33558255 -66.8125 30.3125 C-65.56146484 30.32861328 -64.31042969 30.34472656 -63.02148438 30.36132812 C-38.9327935 30.37386779 -20.21775002 18.29382503 -3.265625 2.08984375 C-1 0 -1 0 0 0 Z " fill="#050505" transform="translate(370,351)"/>
<path d="M0 0 C5.01413604 3.21661558 7.31779111 6.299181 9 12 C9.39351608 16.59102089 9.36667473 20.75330593 8.0625 25.1875 C7.70193735 27.95752249 7.70193735 27.95752249 9.2109375 29.53125 C10.42035561 30.69141579 11.65019601 31.83049121 12.89453125 32.953125 C19.00331919 38.89190957 23.72996553 46.66087826 28 54 C28 54.66 28 55.32 28 56 C28.59167969 55.97679687 29.18335938 55.95359375 29.79296875 55.9296875 C34.33801959 55.82588536 37.85940059 55.86291643 42 58 C42 58.33 42 58.66 42 59 C41.22914063 59.06058594 40.45828125 59.12117188 39.6640625 59.18359375 C38.66117187 59.26738281 37.65828125 59.35117187 36.625 59.4375 C35.62726563 59.51871094 34.62953125 59.59992188 33.6015625 59.68359375 C31.02072387 59.84965626 31.02072387 59.84965626 29 61 C28.36139231 63.69797102 27.83174758 66.33366623 27.375 69.0625 C27.2409375 69.82111328 27.106875 70.57972656 26.96875 71.36132812 C26.63799878 73.23952258 26.31799266 75.11960338 26 77 C25.67 77 25.34 77 25 77 C24.91363281 76.17757812 24.82726562 75.35515625 24.73828125 74.5078125 C22.93311477 60.16584765 17.08962221 51.05969981 6 42 C3.0262551 39.86224764 -0.06210824 37.93068246 -3.18237305 36.01586914 C-8.68573237 32.63843743 -12.78887917 29.86264923 -15.375 23.75 C-16.74064927 15.55610436 -16.84671949 9.03447482 -12 2 C-8.6459933 -1.95293647 -4.65103494 -1.45176813 0 0 Z " fill="#070707" transform="translate(440,288)"/>
<path d="M0 0 C0.89332031 0.17080078 1.78664063 0.34160156 2.70703125 0.51757812 C22.19466653 4.33428089 22.19466653 4.33428089 30 8 C30.99 9.485 30.99 9.485 32 11 C25.82463798 11.14643534 19.97617732 10.59306704 13.8671875 9.72265625 C12.91288849 9.59185165 11.95858948 9.46104706 10.97537231 9.32627869 C7.94118845 8.9100919 4.90802337 8.48705561 1.875 8.0625 C-26.32847571 4.04999588 -26.32847571 4.04999588 -54.75 4.5 C-59.92591106 4.98698088 -65.05539063 5.11226291 -70.25 5.125 C-70.99475586 5.12951172 -71.73951172 5.13402344 -72.50683594 5.13867188 C-77.41843722 5.12556845 -82.13708577 4.69313031 -87 4 C-87.33 2.35 -87.66 0.7 -88 -1 C-58.271829 -5.00016425 -29.58549979 -5.72303175 0 0 Z " fill="#DFDFDF" transform="translate(301,214)"/>
<path d="M0 0 C0 0.99 0 1.98 0 3 C-1.75 4.60546875 -1.75 4.60546875 -4 6.1875 C-4.7425 6.71730469 -5.485 7.24710938 -6.25 7.79296875 C-6.8275 8.19128906 -7.405 8.58960938 -8 9 C-6.89140625 8.57847656 -5.7828125 8.15695313 -4.640625 7.72265625 C-3.17712752 7.169154 -1.7135834 6.61577504 -0.25 6.0625 C0.47960937 5.78470703 1.20921875 5.50691406 1.9609375 5.22070312 C2.66992188 4.95322266 3.37890625 4.68574219 4.109375 4.41015625 C4.75874023 4.16402588 5.40810547 3.91789551 6.07714844 3.66430664 C8.04495409 2.98446926 9.9543188 2.39283009 12 2 C13 3 13 3 13 10 C2.11 13.63 -8.78 17.26 -20 21 C-17.15375 20.690625 -14.3075 20.38125 -11.375 20.0625 C-3.25795896 19.19444607 4.85147631 18.50512871 13 18 C13 20.31 13 22.62 13 25 C12.10925781 25.02578125 11.21851563 25.0515625 10.30078125 25.078125 C-3.22128493 25.66085851 -16.51020171 27.61837761 -29.89501953 29.55859375 C-33.59212947 30.08417755 -37.29234492 30.55563684 -41 31 C-41 28 -41 28 -39.8125 26.625 C-39.214375 26.08875 -38.61625 25.5525 -38 25 C-37.34 24.278125 -36.68 23.55625 -36 22.8125 C-31.84899959 18.64872728 -26.91948621 15.19251682 -22 12 C-21.34 12 -20.68 12 -20 12 C-20 11.34 -20 10.68 -20 10 C-19.42967041 9.7326001 -18.85934082 9.4652002 -18.27172852 9.18969727 C-15.70093338 7.98285833 -13.13170278 6.7727249 -10.5625 5.5625 C-9.66466797 5.14162109 -8.76683594 4.72074219 -7.84179688 4.28710938 C-6.98779297 3.88427734 -6.13378906 3.48144531 -5.25390625 3.06640625 C-4.46314697 2.69459229 -3.6723877 2.32277832 -2.85766602 1.93969727 C-1.03502006 1.13895211 -1.03502006 1.13895211 0 0 Z " fill="#DDDDDD" transform="translate(574,204)"/>
<path d="M0 0 C1.07785767 0.00580078 1.07785767 0.00580078 2.17749023 0.01171875 C7.73035566 0.10167405 13.00707336 0.772831 18.375 2.25 C18.375 2.91 18.375 3.57 18.375 4.25 C15.12764645 5.87367678 11.51389696 5.50338271 7.9375 5.625 C-1.37424227 6.01820217 -10.40933928 7.27412541 -19.57617188 8.91015625 C-21.58370434 9.24315019 -23.58833346 9.48436675 -25.609375 9.71875 C-26.60453125 9.8940625 -27.5996875 10.069375 -28.625 10.25 C-28.955 10.91 -29.285 11.57 -29.625 12.25 C-31.90380859 12.95874023 -31.90380859 12.95874023 -34.8984375 13.62109375 C-42.57047446 15.42728061 -49.97270118 17.88760522 -57.4453125 20.37695312 C-66.56140692 23.36112017 -75.41718084 25.42092126 -85 26 C-85.68449219 26.05542969 -86.36898437 26.11085937 -87.07421875 26.16796875 C-90.94080727 26.41573073 -93.27328206 26.12872853 -96.625 24.25 C-96.07601044 24.06738113 -95.52702087 23.88476227 -94.96139526 23.6966095 C-91.0919042 22.4082806 -87.22369912 21.11648004 -83.35986328 19.8112793 C-62.65214105 12.82516512 -42.16834074 6.16798005 -20.625 2.25 C-19.09576904 1.96503662 -19.09576904 1.96503662 -17.53564453 1.67431641 C-11.64891068 0.6257911 -5.98007481 -0.08051068 0 0 Z " fill="#D7D7D7" transform="translate(316.625,226.75)"/>
<path d="M0 0 C6.22359861 0.17531264 10.81476342 2.66201825 16.1875 5.625 C17.02466553 6.07866943 17.86183105 6.53233887 18.72436523 6.99975586 C20.39379709 7.90855614 22.06030964 8.82274279 23.72363281 9.74267578 C25.65939412 10.81187041 27.60399859 11.86079686 29.5546875 12.90234375 C36.56033293 16.7690961 42.27787714 21.41713234 48 27 C47.505 28.485 47.505 28.485 47 30 C43.20980534 31.26339822 41.62477616 30.49719015 38 29 C37.505 28.01 37.505 28.01 37 27 C34.57582726 25.90148145 34.57582726 25.90148145 31.609375 24.90625 C29.95615234 24.32037109 29.95615234 24.32037109 28.26953125 23.72265625 C27.10808594 23.31917969 25.94664062 22.91570312 24.75 22.5 C22.47372884 21.6985682 20.19767901 20.89650741 17.921875 20.09375 C16.39965332 19.56297852 16.39965332 19.56297852 14.84667969 19.02148438 C12.20391241 18.07317063 9.59939024 17.06073238 7 16 C7 15.34 7 14.68 7 14 C10.63 14.33 14.26 14.66 18 15 C16.72382813 14.48050781 15.44765625 13.96101562 14.1328125 13.42578125 C12.46315402 12.72227347 10.79390407 12.01779557 9.125 11.3125 C8.28324219 10.97283203 7.44148438 10.63316406 6.57421875 10.28320312 C0.35145914 7.61986201 0.35145914 7.61986201 -1.5703125 4.23046875 C-1.71210938 3.49441406 -1.85390625 2.75835937 -2 2 C-1.34 1.34 -0.68 0.68 0 0 Z " fill="#D9D9D9" transform="translate(283,191)"/>
<path d="M0 0 C0.33 0 0.66 0 1 0 C1.47370671 5.68448047 0.69226254 10.45871452 -3 15 C-7.49270822 17.73151343 -12.060012 18.92076337 -17.125 20.0625 C-23.31807577 21.34929975 -23.31807577 21.34929975 -29 24 C-31.08267714 28.16535427 -29.45610502 33.51088999 -28.14453125 37.79296875 C-26.70290578 41.79748396 -25.14163321 45.68949642 -23.375 49.5625 C-20.82362594 55.94093516 -19.2142013 62.21396495 -21 69 C-21.33 69 -21.66 69 -22 69 C-22.03867187 67.80503906 -22.03867187 67.80503906 -22.078125 66.5859375 C-22.42047025 60.19030578 -22.8569405 56.11789703 -27 51 C-29.43062453 46.48881371 -31.32312963 41.8478693 -33.125 37.0625 C-33.38925781 36.38509766 -33.65351563 35.70769531 -33.92578125 35.00976562 C-35.57086351 30.6548905 -36.50492083 26.63080149 -37 22 C-36.29617188 21.72027344 -35.59234375 21.44054687 -34.8671875 21.15234375 C-22.10632368 15.9713664 -10.77699856 10.92610311 -1 1 C-0.67 0.67 -0.34 0.34 0 0 Z " fill="#0C0C0C" transform="translate(411,375)"/>
<path d="M0 0 C18.23774959 -1.49489751 41.73792719 7.12985247 58 15 C59.43088528 17.86177057 58.59991697 19.93375773 58 23 C53.25522932 21.57419245 48.85794258 19.61800657 44.35961914 17.57226562 C32.48396161 12.19850331 20.63129854 8.16806623 8 5 C6.82606689 4.70416016 6.82606689 4.70416016 5.62841797 4.40234375 C3.75306352 3.93175689 1.87665035 3.46539205 0 3 C0 2.01 0 1.02 0 0 Z " fill="#D1D1D1" transform="translate(529,243)"/>
<path d="M0 0 C0 2.31 0 4.62 0 7 C-0.96035156 7.03738281 -1.92070313 7.07476562 -2.91015625 7.11328125 C-12.79837559 7.56592397 -22.52682845 8.61554721 -32.33032227 9.98364258 C-33.26932373 10.11407959 -34.2083252 10.2445166 -35.17578125 10.37890625 C-36.01020752 10.4982251 -36.84463379 10.61754395 -37.7043457 10.74047852 C-40 11 -40 11 -44 11 C-43.67 9.68 -43.34 8.36 -43 7 C-34.41020028 4.06726075 -25.98103152 2.40312888 -17 1.25 C-15.51391235 1.05893677 -15.51391235 1.05893677 -13.99780273 0.86401367 C-9.30632795 0.29507218 -4.73570581 -0.15999006 0 0 Z " fill="#D8D8D8" transform="translate(587,222)"/>
<path d="M0 0 C4.02995621 3.2972369 4.84493417 7.51952943 5.37109375 12.54296875 C5.39300781 13.74566406 5.41492188 14.94835937 5.4375 16.1875 C5.47746094 17.39792969 5.51742188 18.60835938 5.55859375 19.85546875 C5 23 5 23 2.61328125 24.95703125 C0 26 0 26 -2.25 25.5 C-4 24 -4 24 -4.8125 21.5 C-5 19 -5 19 -4 17 C-3.6694867 11.59513542 -3.88266106 6.30735995 -5 1 C-4.01 1.33 -3.02 1.66 -2 2 C-1.34 1.34 -0.68 0.68 0 0 Z " fill="#F6F6F6" transform="translate(452,293)"/>
<path d="M0 0 C-0.680625 0.804375 -1.36125 1.60875 -2.0625 2.4375 C-4.35861081 5.9347791 -4.28645535 8.45415282 -3.6171875 12.50390625 C-2.1532798 18.42439374 0.09839864 24.02341241 2.625 29.5625 C5.17637406 35.94093516 6.7857987 42.21396495 5 49 C4.67 49 4.34 49 4 49 C3.96132813 47.80503906 3.96132813 47.80503906 3.921875 46.5859375 C3.57952975 40.19030578 3.1430595 36.11789703 -1 31 C-3.43062453 26.48881371 -5.32312963 21.8478693 -7.125 17.0625 C-7.38925781 16.38509766 -7.65351563 15.70769531 -7.92578125 15.00976562 C-9.57086351 10.6548905 -10.50492083 6.63080149 -11 2 C-9.73392393 1.46770674 -8.46189588 0.94955456 -7.1875 0.4375 C-6.47980469 0.14746094 -5.77210938 -0.14257812 -5.04296875 -0.44140625 C-3 -1 -3 -1 0 0 Z " fill="#0E0E0E" transform="translate(385,395)"/>
<path d="M0 0 C3.51669583 0.59910901 6.51142428 1.52535251 9.7578125 2.99609375 C10.63050781 3.38990234 11.50320312 3.78371094 12.40234375 4.18945312 C13.30082031 4.60130859 14.19929687 5.01316406 15.125 5.4375 C16.48431641 6.04948242 16.48431641 6.04948242 17.87109375 6.67382812 C21.43458932 8.29191908 24.73597662 9.82398441 28 12 C27.01 12 26.02 12 25 12 C25.33 12.99 25.66 13.98 26 15 C25.34 15 24.68 15 24 15 C24.33 16.32 24.66 17.64 25 19 C15.88426484 15.71700215 6.56729059 9.1467574 0 2 C0 1.34 0 0.68 0 0 Z " fill="#DBDBDB" transform="translate(230,148)"/>
<path d="M0 0 C11.96940346 -0.98109864 23.78309498 3.12835859 35 7 C33.25 10.875 33.25 10.875 31 12 C28.18812948 11.15135895 25.45023911 10.23777925 22.6875 9.25 C15.19003151 6.6485304 7.78820945 4.56864996 0 3 C0 2.01 0 1.02 0 0 Z " fill="#CCCCCC" transform="translate(529,243)"/>
<path d="M0 0 C0 0.66 0 1.32 0 2 C-0.8971875 2.23074219 -1.794375 2.46148437 -2.71875 2.69921875 C-10.43885417 4.71697325 -18.06557652 6.88039349 -25.63085938 9.42456055 C-29.19948935 10.58838319 -32.24214416 11.25916247 -36 11 C-26.60221517 2.54199365 -12.57710313 -2.8298482 0 0 Z " fill="#D0D0D0" transform="translate(338,236)"/>
<path d="M0 0 C6.4050667 0.07156819 13.08258552 0.19951939 18.87573242 3.25317383 C19.37073242 4.73817383 19.37073242 4.73817383 19.87573242 6.25317383 C18.91795898 6.19258789 17.96018555 6.13200195 16.97338867 6.06958008 C6.94234315 5.437553 -3.09029753 4.83683298 -13.12426758 4.25317383 C-13.12426758 -2.32142374 -5.1032648 0.00589135 0 0 Z " fill="#F7F7F7" transform="translate(545.124267578125,235.746826171875)"/>
<path d="M0 0 C1.875 0.25 1.875 0.25 4 1 C6.39522585 4.45977068 6.20715429 7.64228534 6.125 11.75 C6.10695313 12.92046875 6.08890625 14.0909375 6.0703125 15.296875 C6.03550781 16.63492187 6.03550781 16.63492187 6 18 C2.125 17.125 2.125 17.125 1 16 C0.57457261 13.8845186 0.20912463 11.75680926 -0.125 9.625 C-0.31320312 8.46226562 -0.50140625 7.29953125 -0.6953125 6.1015625 C-1 3 -1 3 0 0 Z " fill="#E4E4E4" transform="translate(383,427)"/>
<path d="M0 0 C12.08796018 3.73059461 12.08796018 3.73059461 15 9 C15 9.66 15 10.32 15 11 C10.94180817 10.34496718 7.46028718 9.05440879 3.6875 7.4375 C2.61886719 6.98246094 1.55023438 6.52742188 0.44921875 6.05859375 C-0.35902344 5.70925781 -1.16726563 5.35992187 -2 5 C-1.34 3.35 -0.68 1.7 0 0 Z " fill="#111111" transform="translate(453,255)"/>
<path d="M0 0 C0.33 2.64 0.66 5.28 1 8 C-2.3 8.66 -5.6 9.32 -9 10 C-9 7 -9 7 -7.75 5.5625 C-7.1725 5.046875 -6.595 4.53125 -6 4 C-4.9790625 2.9171875 -4.9790625 2.9171875 -3.9375 1.8125 C-2 0 -2 0 0 0 Z M13 1 C13 1.33 13 1.66 13 2 C9.04 2.99 5.08 3.98 1 5 C1 4.34 1 3.68 1 3 C8.28571429 -0.57142857 8.28571429 -0.57142857 13 1 Z " fill="#AFAFAF" transform="translate(542,225)"/>
<path d="M0 0 C-3.62426706 3.14166231 -7.62939929 4.60604186 -12.0625 6.25 C-12.78244141 6.53101563 -13.50238281 6.81203125 -14.24414062 7.1015625 C-19.63204456 9.12265181 -19.63204456 9.12265181 -23 8 C-16.33137499 2.24411975 -9.01521118 -2.32185723 0 0 Z " fill="#B3B3B3" transform="translate(341,243)"/>
<path d="M0 0 C1.2065625 0.0309375 1.2065625 0.0309375 2.4375 0.0625 C1.50176543 9.41984568 -3.7466144 16.00502084 -9.5625 23.0625 C-10.2225 22.4025 -10.8825 21.7425 -11.5625 21.0625 C-11.15257812 20.62679688 -10.74265625 20.19109375 -10.3203125 19.7421875 C-4.84898391 13.69492958 -3.40105893 9.29599481 -3.5625 1.0625 C-2.5625 0.0625 -2.5625 0.0625 0 0 Z " fill="#101010" transform="translate(306.5625,403.9375)"/>
<path d="M0 0 C1.50934217 3.01868434 1.17510672 5.67297229 1 9 C0.01 10.485 0.01 10.485 -1 12 C-2.32 12 -3.64 12 -5 12 C-5.309375 10.88625 -5.61875 9.7725 -5.9375 8.625 C-6.82326483 5.2054845 -6.82326483 5.2054845 -8 3 C-2.25 0 -2.25 0 0 0 Z " fill="#D3D3D3" transform="translate(488,354)"/>
<path d="M0 0 C6.30267439 0.36776168 11.33251843 1.16625922 17 4 C17 4.66 17 5.32 17 6 C11.72 5.67 6.44 5.34 1 5 C0.67 3.35 0.34 1.7 0 0 Z " fill="#B7B7B7" transform="translate(548,236)"/>
<path d="M0 0 C0.64066406 0.19335938 1.28132812 0.38671875 1.94140625 0.5859375 C6.95110985 2.0940748 11.96539857 3.57717786 17 5 C16.01 5.66 15.02 6.32 14 7 C14 7.99 14 8.98 14 10 C8.91781973 8.60240043 4.03328438 6.44978893 0 3 C0 2.01 0 1.02 0 0 Z " fill="#BEBEBE" transform="translate(214,165)"/>
<path d="M0 0 C4.95 0 9.9 0 15 0 C13 5 13 5 12 7 C8.04 5.35 4.08 3.7 0 2 C0 1.34 0 0.68 0 0 Z " fill="#202020" transform="translate(437,197)"/>
<path d="M0 0 C0.47050781 0.40992188 0.94101562 0.81984375 1.42578125 1.2421875 C2.04839844 1.78101563 2.67101562 2.31984375 3.3125 2.875 C3.92738281 3.40867188 4.54226563 3.94234375 5.17578125 4.4921875 C7.13498212 6.1640447 7.13498212 6.1640447 10 8 C10 8.66 10 9.32 10 10 C5.13103697 9.40380045 0.67209049 8.43023178 -4 7 C-3.01 6.34 -2.02 5.68 -1 5 C-0.27034634 2.43717258 -0.27034634 2.43717258 0 0 Z " fill="#161616" transform="translate(468,197)"/>
<path d="M0 0 C0 0.99 0 1.98 0 3 C-1.75 4.60546875 -1.75 4.60546875 -4 6.1875 C-4.7425 6.71730469 -5.485 7.24710938 -6.25 7.79296875 C-6.8275 8.19128906 -7.405 8.58960938 -8 9 C-7.01 9.33 -6.02 9.66 -5 10 C-6 11 -6 11 -9.0625 11.0625 C-10.031875 11.041875 -11.00125 11.02125 -12 11 C-12 10.34 -12 9.68 -12 9 C-13.65 9.33 -15.3 9.66 -17 10 C-13.43312878 6.95591696 -9.90489084 4.78917799 -5.6875 2.75 C-4.61886719 2.22921875 -3.55023437 1.7084375 -2.44921875 1.171875 C-1.64097656 0.78515625 -0.83273437 0.3984375 0 0 Z " fill="#A3A3A3" transform="translate(574,204)"/>
<path d="M0 0 C0.33 0 0.66 0 1 0 C1.17835515 4.54805635 0.99785435 7.8794254 -1 12 C-1.33 11.34 -1.66 10.68 -2 10 C-3.32 10.99 -4.64 11.98 -6 13 C-6.66 12.67 -7.32 12.34 -8 12 C-6.69161864 9.997193 -5.37857806 7.99773901 -4.0625 6 C-3.50272461 5.14148438 -3.50272461 5.14148438 -2.93164062 4.265625 C-1.98055411 2.82614271 -0.99305724 1.41085511 0 0 Z " fill="#C0C0C0" transform="translate(572,172)"/>
<path d="M0 0 C3.01217112 0.64449607 5.51655836 1.65022182 8.25 3.0625 C8.95640625 3.42472656 9.6628125 3.78695312 10.390625 4.16015625 C10.92171875 4.43730469 11.4528125 4.71445313 12 5 C10.68 6.65 9.36 8.3 8 10 C4.71211176 6.88983545 2.16264012 3.98381075 0 0 Z " fill="#C8C8C8" transform="translate(393,155)"/>
<path d="M0 0 C5.46737191 1.74807129 10.75824848 3.65794081 16 6 C15.34 7.32 14.68 8.64 14 10 C11.85032779 8.7143824 9.70533651 7.42192095 7.5625 6.125 C6.95083984 5.76019531 6.33917969 5.39539063 5.70898438 5.01953125 C1.11328125 2.2265625 1.11328125 2.2265625 0 0 Z " fill="#E7E7E7" transform="translate(452,260)"/>
<path d="M0 0 C2.06309376 0.11478413 4.12548354 0.24226198 6.1875 0.375 C7.33605469 0.44460937 8.48460937 0.51421875 9.66796875 0.5859375 C12.79959117 0.97509574 15.15285809 1.6809851 18 3 C17.38125 3.144375 16.7625 3.28875 16.125 3.4375 C13.96741678 3.93152225 13.96741678 3.93152225 12 5 C10 6 10 6 7.6171875 5.22265625 C6.71226562 4.83980469 5.80734375 4.45695313 4.875 4.0625 C3.50988281 3.49208984 3.50988281 3.49208984 2.1171875 2.91015625 C1.41851562 2.60980469 0.71984375 2.30945313 0 2 C0 1.34 0 0.68 0 0 Z " fill="#838383" transform="translate(290,205)"/>
<path d="M0 0 C5.94649079 0.37165567 10.37830412 2.14658603 15 6 C15 6.66 15 7.32 15 8 C11.97177304 7.3224515 9.22345614 6.35393258 6.375 5.125 C5.59898437 4.79757813 4.82296875 4.47015625 4.0234375 4.1328125 C2 3 2 3 0 0 Z " fill="#9E9E9E" transform="translate(525,250)"/>
<path d="M0 0 C0 0.99 0 1.98 0 3 C-0.66 3.66 -1.32 4.32 -2 5 C-2.6425235 7.06874034 -2.6425235 7.06874034 -3 9 C-6.81684226 7.44499019 -9.19195732 4.96404505 -12 2 C-8 2 -8 2 -5.4375 2.6875 C-4.2309375 2.8421875 -4.2309375 2.8421875 -3 3 C-1.1645201 1.66621425 -1.1645201 1.66621425 0 0 Z " fill="#A7A7A7" transform="translate(285,436)"/>
<path d="M0 0 C0.99 0 1.98 0 3 0 C5.36561846 7.15031567 6.34274501 12.55386857 5 20 C4.67 20 4.34 20 4 20 C3.96261719 19.19175781 3.92523438 18.38351562 3.88671875 17.55078125 C3.82097656 16.48214844 3.75523437 15.41351563 3.6875 14.3125 C3.62949219 13.25675781 3.57148438 12.20101563 3.51171875 11.11328125 C2.95905757 7.7509075 1.80742503 5.84439275 0 3 C0 2.01 0 1.02 0 0 Z " fill="#343434" transform="translate(385,424)"/>
<path d="M0 0 C2.17854707 3.2678206 3.49760034 6.38058265 5 10 C4.34 10 3.68 10 3 10 C2.67 10.66 2.34 11.32 2 12 C-0.05257931 8.55166676 -1.0632763 6.68338409 -0.6875 2.625 C-0.460625 1.75875 -0.23375 0.8925 0 0 Z " fill="#1D1D1D" transform="translate(382,414)"/>
<path d="M0 0 C0.99 0.99 1.98 1.98 3 3 C1.74131097 4.84169226 0.46766474 6.67317031 -0.8125 8.5 C-1.52019531 9.5209375 -2.22789062 10.541875 -2.95703125 11.59375 C-3.63121094 12.3878125 -4.30539062 13.181875 -5 14 C-5.99 14 -6.98 14 -8 14 C-7.38511719 13.23816406 -7.38511719 13.23816406 -6.7578125 12.4609375 C-3.60713656 8.4359113 -1.26203939 5.04815754 0 0 Z " fill="#212121" transform="translate(303,412)"/>
<path d="M0 0 C0.33 0.66 0.66 1.32 1 2 C1.66 2 2.32 2 3 2 C1.58707905 6.8274799 -0.42974154 10.7162359 -3 15 C-3.66 15 -4.32 15 -5 15 C-3.33333333 10 -1.66666667 5 0 0 Z " fill="#313131" transform="translate(468,308)"/>
<path d="M0 0 C2.64 0.99 5.28 1.98 8 3 C8 3.99 8 4.98 8 6 C4.7 6 1.4 6 -2 6 C-1.67 5.34 -1.34 4.68 -1 4 C-0.34 4 0.32 4 1 4 C0.67 2.68 0.34 1.36 0 0 Z " fill="#0F0F0F" transform="translate(488,219)"/>
<path d="M0 0 C3.3 0 6.6 0 10 0 C9.34 1.32 8.68 2.64 8 4 C5.36 3.67 2.72 3.34 0 3 C0 2.01 0 1.02 0 0 Z " fill="#9A9A9A" transform="translate(529,243)"/>
<path d="M0 0 C3.82097239 0.53069061 6.06171403 1.49701566 9 4 C8.34 4 7.68 4 7 4 C6.67 4.99 6.34 5.98 6 7 C3.95880212 5.38405168 1.95927063 3.7143618 0 2 C0 1.34 0 0.68 0 0 Z " fill="#B0B0B0" transform="translate(230,148)"/>
<path d="M0 0 C2.69082872 0.17635452 5.32851446 0.61835921 8 1 C4.375 4 4.375 4 1 4 C0.67 4.66 0.34 5.32 0 6 C-0.38218767 4.34385343 -0.71395102 2.67542976 -1 1 C-0.67 0.67 -0.34 0.34 0 0 Z " fill="#D9D9D9" transform="translate(403,161)"/>
<path d="M0 0 C0.66 0.33 1.32 0.66 2 1 C2 1.99 2 2.98 2 4 C-1.50776784 5.60355101 -4.14354879 6.22036864 -8 6 C-5.38485683 3.87961365 -2.80362384 1.86908256 0 0 Z " fill="#8B8B8B" transform="translate(310,241)"/>
<path d="M0 0 C1.98 0.66 3.96 1.32 6 2 C5.01 3.32 4.02 4.64 3 6 C1.35 5.67 -0.3 5.34 -2 5 C-1.34 3.35 -0.68 1.7 0 0 Z " fill="#181818" transform="translate(453,255)"/>
<path d="M0 0 C4.23431576 3.60700972 6.4692099 8.14586161 9 13 C5.39584951 11.7986165 4.85293989 10.73856012 2.8125 7.625 C2.28269531 6.83351562 1.75289063 6.04203125 1.20703125 5.2265625 C0 3 0 3 0 0 Z " fill="#2D2D2D" transform="translate(474,231)"/>
<path d="M0 0 C1.4540625 0.0309375 1.4540625 0.0309375 2.9375 0.0625 C1.9475 0.7225 0.9575 1.3825 -0.0625 2.0625 C2.2475 2.3925 4.5575 2.7225 6.9375 3.0625 C6.9375 3.3925 6.9375 3.7225 6.9375 4.0625 C3.3075 4.0625 -0.3225 4.0625 -4.0625 4.0625 C-4.0625 0.08290816 -4.0625 0.08290816 0 0 Z " fill="#7E7E7E" transform="translate(536.0625,235.9375)"/>
<path d="M0 0 C0.66 0.33 1.32 0.66 2 1 C1.25 3.4375 1.25 3.4375 0 6 C-2.125 6.8125 -2.125 6.8125 -4 7 C-3.43628586 3.73045798 -2.50037734 2.17424117 0 0 Z " fill="#E4E4E4" transform="translate(286,437)"/>
<path d="M0 0 C0 1.65 0 3.3 0 5 C-1.32 5.33 -2.64 5.66 -4 6 C-4.66 4.68 -5.32 3.36 -6 2 C-3 0 -3 0 0 0 Z " fill="#DDDDDD" transform="translate(486,355)"/>
<path d="M0 0 C0 1.98 0 3.96 0 6 C-0.99 5.67 -1.98 5.34 -3 5 C-3.99 5.99 -4.98 6.98 -6 8 C-6.66 7.67 -7.32 7.34 -8 7 C-6.8572081 5.83035398 -5.71068285 4.66435444 -4.5625 3.5 C-3.92441406 2.8503125 -3.28632813 2.200625 -2.62890625 1.53125 C-1 0 -1 0 0 0 Z " fill="#1A1A1A" transform="translate(370,351)"/>
<path d="M0 0 C2.97 0.99 5.94 1.98 9 3 C8.01 4.485 8.01 4.485 7 6 C5.83054208 5.19152271 4.66449539 4.37810888 3.5 3.5625 C2.8503125 3.11003906 2.200625 2.65757812 1.53125 2.19140625 C1.0259375 1.79824219 0.520625 1.40507812 0 1 C0 0.67 0 0.34 0 0 Z " fill="#D4D4D4" transform="translate(452,260)"/>
<path d="M0 0 C1.98 0 3.96 0 6 0 C6 0.66 6 1.32 6 2 C6.99 2.33 7.98 2.66 9 3 C5.7 2.67 2.4 2.34 -1 2 C-0.67 1.34 -0.34 0.68 0 0 Z " fill="#989898" transform="translate(221,250)"/>
<path d="M0 0 C6.75 0.75 6.75 0.75 9 3 C5.99727245 3.96516243 3.95784231 4.22393475 1 3 C0.67 2.01 0.34 1.02 0 0 Z " fill="#7E7E7E" transform="translate(525,250)"/>
<path d="M0 0 C1.32 0.66 2.64 1.32 4 2 C0.81237635 4.12508244 -1.26512223 4.5020163 -5 5 C-3.35 3.35 -1.7 1.7 0 0 Z " fill="#7C7C7C" transform="translate(323,247)"/>
<path d="M0 0 C3.37462715 0.54723683 5.08235 1.0549 8 3 C7.01 3.66 6.02 4.32 5 5 C3.35 3.35 1.7 1.7 0 0 Z " fill="#CACACA" transform="translate(436,238)"/>
<path d="M0 0 C2.62386487 3.06117568 3 3.73173127 3 8 C2.01 8 1.02 8 0 8 C0 5.36 0 2.72 0 0 Z " fill="#C3C3C3" transform="translate(420,239)"/>
<path d="M0 0 C2.97 0.495 2.97 0.495 6 1 C6 1.66 6 2.32 6 3 C4.35 3.33 2.7 3.66 1 4 C0.67 2.68 0.34 1.36 0 0 Z " fill="#B0B0B0" transform="translate(332,235)"/>
<path d="M0 0 C0 0.99 0 1.98 0 3 C-2 4.6875 -2 4.6875 -4 6 C-5.32 5.34 -6.64 4.68 -8 4 C-5.36 2.68 -2.72 1.36 0 0 Z " fill="#717171" transform="translate(574,204)"/>
<path d="M0 0 C2.5 1.375 2.5 1.375 5 3 C5 3.66 5 4.32 5 5 C2.69 4.67 0.38 4.34 -2 4 C-1.34 3.67 -0.68 3.34 0 3 C0 2.01 0 1.02 0 0 Z " fill="#272727" transform="translate(473,202)"/>
<path d="M0 0 C2 1 2 1 2 1 Z " fill="#373737" transform="translate(342,250)"/>
<path d="" fill="#1A1A1A" transform="translate(0,0)"/>
<path d="" fill="#181818" transform="translate(0,0)"/>
<path d="" fill="#181818" transform="translate(0,0)"/>
<path d="" fill="#121212" transform="translate(0,0)"/>
<path d="" fill="#151515" transform="translate(0,0)"/>
<path d="" fill="#191919" transform="translate(0,0)"/>
<path d="" fill="#111111" transform="translate(0,0)"/>
<path d="" fill="#141414" transform="translate(0,0)"/>
<path d="" fill="#151515" transform="translate(0,0)"/>
<path d="" fill="#131313" transform="translate(0,0)"/>
<path d="" fill="#141414" transform="translate(0,0)"/>
<path d="" fill="#171717" transform="translate(0,0)"/>
<path d="" fill="#131313" transform="translate(0,0)"/>
<path d="" fill="#111111" transform="translate(0,0)"/>
<path d="" fill="#121212" transform="translate(0,0)"/>
<path d="" fill="#121212" transform="translate(0,0)"/>
<path d="" fill="#111111" transform="translate(0,0)"/>
<path d="" fill="#131313" transform="translate(0,0)"/>
<path d="" fill="#151515" transform="translate(0,0)"/>
<path d="" fill="#111111" transform="translate(0,0)"/>
<path d="" fill="#151515" transform="translate(0,0)"/>
<path d="" fill="#191919" transform="translate(0,0)"/>
<path d="" fill="#121212" transform="translate(0,0)"/>
<path d="" fill="#111111" transform="translate(0,0)"/>
<path d="" fill="#1B1B1B" transform="translate(0,0)"/>
<path d="" fill="#111111" transform="translate(0,0)"/>
<path d="" fill="#121212" transform="translate(0,0)"/>
<path d="" fill="#111111" transform="translate(0,0)"/>
<path d="" fill="#111111" transform="translate(0,0)"/>
<path d="" fill="#131313" transform="translate(0,0)"/>
<path d="" fill="#111111" transform="translate(0,0)"/>
<path d="" fill="#121212" transform="translate(0,0)"/>
<path d="" fill="#131313" transform="translate(0,0)"/>
<path d="" fill="#121212" transform="translate(0,0)"/>
<path d="" fill="#131313" transform="translate(0,0)"/>
<path d="" fill="#131313" transform="translate(0,0)"/>
<path d="" fill="#111111" transform="translate(0,0)"/>
<path d="" fill="#121212" transform="translate(0,0)"/>
<path d="" fill="#121212" transform="translate(0,0)"/>
<path d="" fill="#121212" transform="translate(0,0)"/>
<path d="" fill="#111111" transform="translate(0,0)"/>
<path d="" fill="#121212" transform="translate(0,0)"/>
<path d="" fill="#111111" transform="translate(0,0)"/>
<path d="" fill="#111111" transform="translate(0,0)"/>
<path d="" fill="#111111" transform="translate(0,0)"/>
<path d="" fill="#141414" transform="translate(0,0)"/>
<path d="" fill="#111111" transform="translate(0,0)"/>
<path d="" fill="#1A1A1A" transform="translate(0,0)"/>
<path d="" fill="#111111" transform="translate(0,0)"/>
<path d="" fill="#141414" transform="translate(0,0)"/>
<path d="" fill="#141414" transform="translate(0,0)"/>
<path d="" fill="#111111" transform="translate(0,0)"/>
<path d="" fill="#111111" transform="translate(0,0)"/>
<path d="" fill="#121212" transform="translate(0,0)"/>
<path d="" fill="#121212" transform="translate(0,0)"/>
<path d="" fill="#121212" transform="translate(0,0)"/>
<path d="" fill="#121212" transform="translate(0,0)"/>
<path d="" fill="#171717" transform="translate(0,0)"/>
<path d="" fill="#121212" transform="translate(0,0)"/>
<path d="" fill="#121212" transform="translate(0,0)"/>
<path d="" fill="#131313" transform="translate(0,0)"/>
<path d="" fill="#1A1A1A" transform="translate(0,0)"/>
<path d="" fill="#141414" transform="translate(0,0)"/>
<path d="" fill="#141414" transform="translate(0,0)"/>
<path d="" fill="#131313" transform="translate(0,0)"/>
<path d="" fill="#121212" transform="translate(0,0)"/>
<path d="" fill="#171717" transform="translate(0,0)"/>
</svg>
